<svg width="536" height="238" viewBox="0 0 536 238" fill="none" xmlns="http://www.w3.org/2000/svg">
<path fill-rule="evenodd" clip-rule="evenodd" d="M16.4821 0.109283C127.88 -1.67044 240.32 17.9937 332.434 80.7014C426.424 144.686 504.528 238.101 529.188 349.14C552.79 455.415 511.406 563.826 461.174 660.398C417.266 744.81 339.789 799.264 264.685 857.645C186.661 918.296 114.482 993.495 16.4821 1006.07C-88.3289 1019.53 -194.075 985.428 -282.74 927.908C-374.905 868.118 -463.862 786.943 -486.936 679.49C-509.28 575.436 -433.739 481.358 -400.326 380.317C-367.159 280.021 -370.248 161.854 -292.223 90.6811C-210.99 16.5807 -93.4282 1.86524 16.4821 0.109283Z" fill="url(#paint0_linear_10_29)"/>
<defs>
<linearGradient id="paint0_linear_10_29" x1="22.5" y1="0" x2="22.5" y2="1009" gradientUnits="userSpaceOnUse">
<stop stop-color="#854975"/>
<stop offset="0.203125" stop-color="#B8577A"/>
<stop offset="0.536458" stop-color="#E47876"/>
<stop offset="1" stop-color="#F8A175"/>
</linearGradient>
</defs>
</svg>
