<svg width="749" height="861" viewBox="0 0 749 861" fill="none" xmlns="http://www.w3.org/2000/svg">
<path fill-rule="evenodd" clip-rule="evenodd" d="M507.482 0.109283C618.88 -1.67044 731.32 17.9937 823.434 80.7014C917.424 144.686 995.528 238.101 1020.19 349.14C1043.79 455.415 1002.41 563.826 952.174 660.398C908.266 744.81 830.789 799.264 755.685 857.645C677.661 918.296 605.482 993.495 507.482 1006.07C402.671 1019.53 296.925 985.428 208.26 927.908C116.095 868.118 27.1376 786.943 4.06404 679.49C-18.2797 575.436 57.2613 481.358 90.6745 380.317C123.841 280.021 120.752 161.854 198.777 90.6811C280.01 16.5807 397.572 1.86524 507.482 0.109283Z" fill="url(#paint0_linear_35_16)"/>
<defs>
<linearGradient id="paint0_linear_35_16" x1="513.5" y1="0" x2="513.5" y2="1009" gradientUnits="userSpaceOnUse">
<stop stop-color="#854975"/>
<stop offset="0.203125" stop-color="#B8577A"/>
<stop offset="0.536458" stop-color="#E47876"/>
<stop offset="1" stop-color="#F8A175"/>
</linearGradient>
</defs>
</svg>
