<svg width="25" height="29" viewBox="0 0 25 29" fill="none" xmlns="http://www.w3.org/2000/svg">
<path d="M12.5 2.9C15.0844 2.9 17.1875 4.8517 17.1875 7.25H20.3125C20.3125 3.25235 16.8078 0 12.5 0C8.19219 0 4.6875 3.25235 4.6875 7.25V10.15H3.125C1.40156 10.15 0 11.4507 0 13.05V26.1C0 27.6994 1.40156 29 3.125 29H21.875C23.5984 29 25 27.6994 25 26.1V13.05C25 11.4507 23.5984 10.15 21.875 10.15H7.8125V7.25C7.8125 4.8517 9.91562 2.9 12.5 2.9ZM21.8781 26.1H14.0625V22.7969C14.9922 22.2938 15.625 21.3687 15.625 20.3C15.625 18.7007 14.2234 17.4 12.5 17.4C10.7766 17.4 9.375 18.7007 9.375 20.3C9.375 21.3672 10.0078 22.2938 10.9375 22.7969V26.1H3.125V13.05H21.875L21.8781 26.1Z" fill="#D1709E"/>
</svg>