<svg width="35" height="23" viewBox="0 0 35 23" fill="none" xmlns="http://www.w3.org/2000/svg">
<path d="M24.0392 11.467L33.0094 4.119V18.7311L24.0392 11.467ZM12.4804 12.7114L15.6304 15.2895C16.1248 15.6855 16.7694 15.9248 17.4738 15.9248H17.4985H17.4971H17.5175C18.2233 15.9248 18.8679 15.6841 19.3681 15.2854L19.3638 15.2881L22.5138 12.71L32.0892 20.4636H2.90938L12.4804 12.7114ZM2.89625 2.37687H32.1067L18.076 13.8664C17.9183 13.984 17.723 14.048 17.5219 14.0479H17.5015H17.5029H17.4825C17.2807 14.0481 17.0847 13.9836 16.9269 13.865L16.9283 13.8664L2.89625 2.37687ZM1.99063 4.11762L10.9594 11.4656L1.99063 18.7256V4.11762ZM33.4906 0.76125C33.1406 0.59625 32.7294 0.5 32.2933 0.5H2.71104C2.28836 0.500095 1.87149 0.592827 1.49333 0.770875L1.50937 0.764C1.05667 0.974528 0.675424 1.30022 0.408704 1.70429C0.141984 2.10835 0.00041905 2.57469 0 3.05063L0 19.7871C0.000772047 20.4645 0.286493 21.1139 0.794471 21.5928C1.30245 22.0718 1.99119 22.3411 2.70958 22.3419H32.289C33.0074 22.3411 33.6961 22.0718 34.2041 21.5928C34.7121 21.1139 34.9978 20.4645 34.9985 19.7871V3.05063C34.9985 2.051 34.3875 1.18475 33.4979 0.768125L33.4819 0.76125H33.4906Z" fill="#D1709E"/>
</svg>
